<svg xmlns="http://www.w3.org/2000/svg" version="1.1" xmlns:xlink="http://www.w3.org/1999/xlink" xmlns:svgjs="http://svgjs.com/svgjs" width="1440" height="560" preserveAspectRatio="none" viewBox="0 0 1440 560"><g mask="url(&quot;#SvgjsMask5643&quot;)" fill="none"><rect width="1440" height="560" x="0" y="0" fill="url(#SvgjsLinearGradient5644)"></rect><use xlink:href="#SvgjsG5646" transform="translate(0, 0)" fill="rgba(27, 70, 112, 1)"></use><use xlink:href="#SvgjsG5646" transform="translate(0, 441)" fill="rgba(27, 70, 112, 1)"></use><use xlink:href="#SvgjsG5646" transform="translate(441, 0)" fill="rgba(27, 70, 112, 1)"></use><use xlink:href="#SvgjsG5646" transform="translate(441, 441)" fill="rgba(27, 70, 112, 1)"></use><use xlink:href="#SvgjsG5646" transform="translate(882, 0)" fill="rgba(27, 70, 112, 1)"></use><use xlink:href="#SvgjsG5646" transform="translate(882, 441)" fill="rgba(27, 70, 112, 1)"></use><use xlink:href="#SvgjsG5646" transform="translate(1323, 0)" fill="rgba(27, 70, 112, 1)"></use><use xlink:href="#SvgjsG5646" transform="translate(1323, 441)" fill="rgba(27, 70, 112, 1)"></use></g><defs><mask id="SvgjsMask5643"><rect width="1440" height="560" fill="#ffffff"></rect></mask><linearGradient x1="15.28%" y1="139.29%" x2="84.72%" y2="-39.29%" gradientUnits="userSpaceOnUse" id="SvgjsLinearGradient5644"><stop stop-color="rgba(14, 42, 71, 1)" offset="0"></stop><stop stop-color="rgba(146, 184, 224, 1)" offset="0.96"></stop></linearGradient><g id="SvgjsG5645"><path d="M0.778 8.111a7.222 7.222 0 1 0 14.444 0 7.222 7.222 0 1 0-14.444 0"></path></g><g id="SvgjsG5646"><use xlink:href="#SvgjsG5645" transform="translate(0, 0) scale(2.1)" fill="rgba(27, 70, 112, 1)"></use><use xlink:href="#SvgjsG5645" transform="translate(0, 44.1) scale(2.1)" fill="rgba(27, 70, 112, 1)"></use><use xlink:href="#SvgjsG5645" transform="translate(0, 88.2) scale(2.1)" fill="rgba(27, 70, 112, 1)"></use><use xlink:href="#SvgjsG5645" transform="translate(0, 132.3) scale(2.1)" fill="rgba(27, 70, 112, 1)"></use><use xlink:href="#SvgjsG5645" transform="translate(0, 176.4) scale(2.1)" fill="rgba(27, 70, 112, 1)"></use><use xlink:href="#SvgjsG5645" transform="translate(0, 220.5) scale(2.1)" fill="rgba(27, 70, 112, 1)"></use><use xlink:href="#SvgjsG5645" transform="translate(0, 264.6) scale(2.1)" fill="rgba(27, 70, 112, 1)"></use><use xlink:href="#SvgjsG5645" transform="translate(0, 308.7) scale(2.1)" fill="rgba(27, 70, 112, 1)"></use><use xlink:href="#SvgjsG5645" transform="translate(0, 352.8) scale(2.1)" fill="rgba(27, 70, 112, 1)"></use><use xlink:href="#SvgjsG5645" transform="translate(0, 396.90000000000003) scale(2.1)" fill="rgba(27, 70, 112, 1)"></use><use xlink:href="#SvgjsG5645" transform="translate(44.1, 0) scale(2.1)" fill="rgba(27, 70, 112, 1)"></use><use xlink:href="#SvgjsG5645" transform="translate(44.1, 44.1) scale(2.1)" fill="rgba(27, 70, 112, 1)"></use><use xlink:href="#SvgjsG5645" transform="translate(44.1, 88.2) scale(2.1)" fill="rgba(27, 70, 112, 1)"></use><use xlink:href="#SvgjsG5645" transform="translate(44.1, 132.3) scale(2.1)" fill="rgba(27, 70, 112, 1)"></use><use xlink:href="#SvgjsG5645" transform="translate(44.1, 176.4) scale(2.1)" fill="rgba(27, 70, 112, 1)"></use><use xlink:href="#SvgjsG5645" transform="translate(44.1, 220.5) scale(2.1)" fill="rgba(27, 70, 112, 1)"></use><use xlink:href="#SvgjsG5645" transform="translate(44.1, 264.6) scale(2.1)" fill="rgba(27, 70, 112, 1)"></use><use xlink:href="#SvgjsG5645" transform="translate(44.1, 308.7) scale(2.1)" fill="rgba(27, 70, 112, 1)"></use><use xlink:href="#SvgjsG5645" transform="translate(44.1, 352.8) scale(2.1)" fill="rgba(27, 70, 112, 1)"></use><use xlink:href="#SvgjsG5645" transform="translate(44.1, 396.90000000000003) scale(2.1)" fill="rgba(27, 70, 112, 1)"></use><use xlink:href="#SvgjsG5645" transform="translate(88.2, 0) scale(2.1)" fill="rgba(27, 70, 112, 1)"></use><use xlink:href="#SvgjsG5645" transform="translate(88.2, 44.1) scale(2.1)" fill="rgba(27, 70, 112, 1)"></use><use xlink:href="#SvgjsG5645" transform="translate(88.2, 88.2) scale(2.1)" fill="rgba(27, 70, 112, 1)"></use><use xlink:href="#SvgjsG5645" transform="translate(88.2, 132.3) scale(2.1)" fill="rgba(27, 70, 112, 1)"></use><use xlink:href="#SvgjsG5645" transform="translate(88.2, 176.4) scale(2.1)" fill="rgba(27, 70, 112, 1)"></use><use xlink:href="#SvgjsG5645" transform="translate(88.2, 220.5) scale(2.1)" fill="rgba(27, 70, 112, 1)"></use><use xlink:href="#SvgjsG5645" transform="translate(88.2, 264.6) scale(2.1)" fill="rgba(27, 70, 112, 1)"></use><use xlink:href="#SvgjsG5645" transform="translate(88.2, 308.7) scale(2.1)" fill="rgba(27, 70, 112, 1)"></use><use xlink:href="#SvgjsG5645" transform="translate(88.2, 352.8) scale(2.1)" fill="rgba(27, 70, 112, 1)"></use><use xlink:href="#SvgjsG5645" transform="translate(88.2, 396.90000000000003) scale(2.1)" fill="rgba(27, 70, 112, 1)"></use><use xlink:href="#SvgjsG5645" transform="translate(132.3, 0) scale(2.1)" fill="rgba(27, 70, 112, 1)"></use><use xlink:href="#SvgjsG5645" transform="translate(132.3, 44.1) scale(2.1)" fill="rgba(27, 70, 112, 1)"></use><use xlink:href="#SvgjsG5645" transform="translate(132.3, 88.2) scale(2.1)" fill="rgba(27, 70, 112, 1)"></use><use xlink:href="#SvgjsG5645" transform="translate(132.3, 132.3) scale(2.1)" fill="rgba(27, 70, 112, 1)"></use><use xlink:href="#SvgjsG5645" transform="translate(132.3, 176.4) scale(2.1)" fill="rgba(27, 70, 112, 1)"></use><use xlink:href="#SvgjsG5645" transform="translate(132.3, 220.5) scale(2.1)" fill="rgba(27, 70, 112, 1)"></use><use xlink:href="#SvgjsG5645" transform="translate(132.3, 264.6) scale(2.1)" fill="rgba(27, 70, 112, 1)"></use><use xlink:href="#SvgjsG5645" transform="translate(132.3, 308.7) scale(2.1)" fill="rgba(27, 70, 112, 1)"></use><use xlink:href="#SvgjsG5645" transform="translate(132.3, 352.8) scale(2.1)" fill="rgba(27, 70, 112, 1)"></use><use xlink:href="#SvgjsG5645" transform="translate(132.3, 396.90000000000003) scale(2.1)" fill="rgba(27, 70, 112, 1)"></use><use xlink:href="#SvgjsG5645" transform="translate(176.4, 0) scale(2.1)" fill="rgba(27, 70, 112, 1)"></use><use xlink:href="#SvgjsG5645" transform="translate(176.4, 44.1) scale(2.1)" fill="rgba(27, 70, 112, 1)"></use><use xlink:href="#SvgjsG5645" transform="translate(176.4, 88.2) scale(2.1)" fill="rgba(27, 70, 112, 1)"></use><use xlink:href="#SvgjsG5645" transform="translate(176.4, 132.3) scale(2.1)" fill="rgba(27, 70, 112, 1)"></use><use xlink:href="#SvgjsG5645" transform="translate(176.4, 176.4) scale(2.1)" fill="rgba(27, 70, 112, 1)"></use><use xlink:href="#SvgjsG5645" transform="translate(176.4, 220.5) scale(2.1)" fill="rgba(27, 70, 112, 1)"></use><use xlink:href="#SvgjsG5645" transform="translate(176.4, 264.6) scale(2.1)" fill="rgba(27, 70, 112, 1)"></use><use xlink:href="#SvgjsG5645" transform="translate(176.4, 308.7) scale(2.1)" fill="rgba(27, 70, 112, 1)"></use><use xlink:href="#SvgjsG5645" transform="translate(176.4, 352.8) scale(2.1)" fill="rgba(27, 70, 112, 1)"></use><use xlink:href="#SvgjsG5645" transform="translate(176.4, 396.90000000000003) scale(2.1)" fill="rgba(27, 70, 112, 1)"></use><use xlink:href="#SvgjsG5645" transform="translate(220.5, 0) scale(2.1)" fill="rgba(27, 70, 112, 1)"></use><use xlink:href="#SvgjsG5645" transform="translate(220.5, 44.1) scale(2.1)" fill="rgba(27, 70, 112, 1)"></use><use xlink:href="#SvgjsG5645" transform="translate(220.5, 88.2) scale(2.1)" fill="rgba(27, 70, 112, 1)"></use><use xlink:href="#SvgjsG5645" transform="translate(220.5, 132.3) scale(2.1)" fill="rgba(27, 70, 112, 1)"></use><use xlink:href="#SvgjsG5645" transform="translate(220.5, 176.4) scale(2.1)" fill="rgba(27, 70, 112, 1)"></use><use xlink:href="#SvgjsG5645" transform="translate(220.5, 220.5) scale(2.1)" fill="rgba(27, 70, 112, 1)"></use><use xlink:href="#SvgjsG5645" transform="translate(220.5, 264.6) scale(2.1)" fill="rgba(27, 70, 112, 1)"></use><use xlink:href="#SvgjsG5645" transform="translate(220.5, 308.7) scale(2.1)" fill="rgba(27, 70, 112, 1)"></use><use xlink:href="#SvgjsG5645" transform="translate(220.5, 352.8) scale(2.1)" fill="rgba(27, 70, 112, 1)"></use><use xlink:href="#SvgjsG5645" transform="translate(220.5, 396.90000000000003) scale(2.1)" fill="rgba(27, 70, 112, 1)"></use><use xlink:href="#SvgjsG5645" transform="translate(264.6, 0) scale(2.1)" fill="rgba(27, 70, 112, 1)"></use><use xlink:href="#SvgjsG5645" transform="translate(264.6, 44.1) scale(2.1)" fill="rgba(27, 70, 112, 1)"></use><use xlink:href="#SvgjsG5645" transform="translate(264.6, 88.2) scale(2.1)" fill="rgba(27, 70, 112, 1)"></use><use xlink:href="#SvgjsG5645" transform="translate(264.6, 132.3) scale(2.1)" fill="rgba(27, 70, 112, 1)"></use><use xlink:href="#SvgjsG5645" transform="translate(264.6, 176.4) scale(2.1)" fill="rgba(27, 70, 112, 1)"></use><use xlink:href="#SvgjsG5645" transform="translate(264.6, 220.5) scale(2.1)" fill="rgba(27, 70, 112, 1)"></use><use xlink:href="#SvgjsG5645" transform="translate(264.6, 264.6) scale(2.1)" fill="rgba(27, 70, 112, 1)"></use><use xlink:href="#SvgjsG5645" transform="translate(264.6, 308.7) scale(2.1)" fill="rgba(27, 70, 112, 1)"></use><use xlink:href="#SvgjsG5645" transform="translate(264.6, 352.8) scale(2.1)" fill="rgba(27, 70, 112, 1)"></use><use xlink:href="#SvgjsG5645" transform="translate(264.6, 396.90000000000003) scale(2.1)" fill="rgba(27, 70, 112, 1)"></use><use xlink:href="#SvgjsG5645" transform="translate(308.7, 0) scale(2.1)" fill="rgba(27, 70, 112, 1)"></use><use xlink:href="#SvgjsG5645" transform="translate(308.7, 44.1) scale(2.1)" fill="rgba(27, 70, 112, 1)"></use><use xlink:href="#SvgjsG5645" transform="translate(308.7, 88.2) scale(2.1)" fill="rgba(27, 70, 112, 1)"></use><use xlink:href="#SvgjsG5645" transform="translate(308.7, 132.3) scale(2.1)" fill="rgba(27, 70, 112, 1)"></use><use xlink:href="#SvgjsG5645" transform="translate(308.7, 176.4) scale(2.1)" fill="rgba(27, 70, 112, 1)"></use><use xlink:href="#SvgjsG5645" transform="translate(308.7, 220.5) scale(2.1)" fill="rgba(27, 70, 112, 1)"></use><use xlink:href="#SvgjsG5645" transform="translate(308.7, 264.6) scale(2.1)" fill="rgba(27, 70, 112, 1)"></use><use xlink:href="#SvgjsG5645" transform="translate(308.7, 308.7) scale(2.1)" fill="rgba(27, 70, 112, 1)"></use><use xlink:href="#SvgjsG5645" transform="translate(308.7, 352.8) scale(2.1)" fill="rgba(27, 70, 112, 1)"></use><use xlink:href="#SvgjsG5645" transform="translate(308.7, 396.90000000000003) scale(2.1)" fill="rgba(27, 70, 112, 1)"></use><use xlink:href="#SvgjsG5645" transform="translate(352.8, 0) scale(2.1)" fill="rgba(27, 70, 112, 1)"></use><use xlink:href="#SvgjsG5645" transform="translate(352.8, 44.1) scale(2.1)" fill="rgba(27, 70, 112, 1)"></use><use xlink:href="#SvgjsG5645" transform="translate(352.8, 88.2) scale(2.1)" fill="rgba(27, 70, 112, 1)"></use><use xlink:href="#SvgjsG5645" transform="translate(352.8, 132.3) scale(2.1)" fill="rgba(27, 70, 112, 1)"></use><use xlink:href="#SvgjsG5645" transform="translate(352.8, 176.4) scale(2.1)" fill="rgba(27, 70, 112, 1)"></use><use xlink:href="#SvgjsG5645" transform="translate(352.8, 220.5) scale(2.1)" fill="rgba(27, 70, 112, 1)"></use><use xlink:href="#SvgjsG5645" transform="translate(352.8, 264.6) scale(2.1)" fill="rgba(27, 70, 112, 1)"></use><use xlink:href="#SvgjsG5645" transform="translate(352.8, 308.7) scale(2.1)" fill="rgba(27, 70, 112, 1)"></use><use xlink:href="#SvgjsG5645" transform="translate(352.8, 352.8) scale(2.1)" fill="rgba(27, 70, 112, 1)"></use><use xlink:href="#SvgjsG5645" transform="translate(352.8, 396.90000000000003) scale(2.1)" fill="rgba(27, 70, 112, 1)"></use><use xlink:href="#SvgjsG5645" transform="translate(396.90000000000003, 0) scale(2.1)" fill="rgba(27, 70, 112, 1)"></use><use xlink:href="#SvgjsG5645" transform="translate(396.90000000000003, 44.1) scale(2.1)" fill="rgba(27, 70, 112, 1)"></use><use xlink:href="#SvgjsG5645" transform="translate(396.90000000000003, 88.2) scale(2.1)" fill="rgba(27, 70, 112, 1)"></use><use xlink:href="#SvgjsG5645" transform="translate(396.90000000000003, 132.3) scale(2.1)" fill="rgba(27, 70, 112, 1)"></use><use xlink:href="#SvgjsG5645" transform="translate(396.90000000000003, 176.4) scale(2.1)" fill="rgba(27, 70, 112, 1)"></use><use xlink:href="#SvgjsG5645" transform="translate(396.90000000000003, 220.5) scale(2.1)" fill="rgba(27, 70, 112, 1)"></use><use xlink:href="#SvgjsG5645" transform="translate(396.90000000000003, 264.6) scale(2.1)" fill="rgba(27, 70, 112, 1)"></use><use xlink:href="#SvgjsG5645" transform="translate(396.90000000000003, 308.7) scale(2.1)" fill="rgba(27, 70, 112, 1)"></use><use xlink:href="#SvgjsG5645" transform="translate(396.90000000000003, 352.8) scale(2.1)" fill="rgba(27, 70, 112, 1)"></use><use xlink:href="#SvgjsG5645" transform="translate(396.90000000000003, 396.90000000000003) scale(2.1)" fill="rgba(27, 70, 112, 1)"></use></g></defs></svg>